HIERARCHY
ROOT Root
{
  OFFSET 0.0 0.0 0.0
  CHANNELS 6 Xposition Yposition Zposition Zrotation Yrotation Xrotation
  JOINT Hips
  {
    OFFSET 0.0 100.0 0.0
    CHANNELS 6 Xposition Yposition Zposition Zrotation Yrotation Xrotation
    JOINT Spine1
    {
      OFFSET 5.003913 -0.037094 -0.013727
      CHANNELS 3 Zrotation Yrotation Xrotation
      JOINT Spine2
      {
        OFFSET 7.125363 -1e-06 0.0
        CHANNELS 3 Zrotation Yrotation Xrotation
        JOINT Chest
        {
          OFFSET 7.594027 1e-06 0.0
          CHANNELS 3 Zrotation Yrotation Xrotation
          JOINT Neck1
          {
            OFFSET 26.313086 -0.460272 -0.181672
            CHANNELS 3 Zrotation Yrotation Xrotation
            JOINT Neck2
            {
              OFFSET 8.045911 0.0 0.0
              CHANNELS 3 Zrotation Yrotation Xrotation
              JOINT Head
              {
                OFFSET 6.432774 0.0 0.0
                CHANNELS 3 Zrotation Yrotation Xrotation
                JOINT HeadEnd
                {
                  OFFSET 16.169773 0.06451 0.00362
                  CHANNELS 3 Zrotation Yrotation Xrotation
                }
                JOINT Jaw
                {
                  OFFSET 0.108741 3.12938 0.002639
                  CHANNELS 3 Zrotation Yrotation Xrotation
                }
                JOINT LeftEye
                {
                  OFFSET 4.45173 8.166359 3.206392
                  CHANNELS 3 Zrotation Yrotation Xrotation
                }
                JOINT RightEye
                {
                  OFFSET 4.436895 8.135758 -3.222429
                  CHANNELS 3 Zrotation Yrotation Xrotation
                }
              }
            }
          }
          JOINT LeftShoulder
          {
            OFFSET 23.218927 5.195579 1.621656
            CHANNELS 3 Zrotation Yrotation Xrotation
            JOINT LeftArm
            {
              OFFSET 15.902118 2e-06 -2e-06
              CHANNELS 3 Zrotation Yrotation Xrotation
              JOINT LeftForeArm
              {
                OFFSET 28.739307 0.0 -1e-06
                CHANNELS 3 Zrotation Yrotation Xrotation
                JOINT LeftHand
                {
                  OFFSET 27.093981 -4e-06 0.0
                  CHANNELS 3 Zrotation Yrotation Xrotation
                  JOINT LeftHandThumb1
                  {
                    OFFSET 2.276781 3.380274 0.83384
                    CHANNELS 3 Zrotation Yrotation Xrotation
                    JOINT LeftHandThumb2
                    {
                      OFFSET 4.705309 -1e-06 -1e-06
                      CHANNELS 3 Zrotation Yrotation Xrotation
                      JOINT LeftHandThumb3
                      {
                        OFFSET 2.798515 0.0 3e-06
                        CHANNELS 3 Zrotation Yrotation Xrotation
                        JOINT LeftHandThumbEnd
                        {
                          OFFSET 3.180793 4e-06 -4e-06
                          CHANNELS 3 Zrotation Yrotation Xrotation
                        }
                      }
                    }
                  }
                  JOINT LeftHandIndex1
                  {
                    OFFSET 3.247786 2.352677 0.137192
                    CHANNELS 3 Zrotation Yrotation Xrotation
                    JOINT LeftHandIndex2
                    {
                      OFFSET 6.367095 1e-06 0.0
                      CHANNELS 3 Zrotation Yrotation Xrotation
                      JOINT LeftHandIndex3
                      {
                        OFFSET 3.662364 0.0 0.0
                        CHANNELS 3 Zrotation Yrotation Xrotation
                        JOINT LeftHandIndex4
                        {
                          OFFSET 2.329242 4e-06 -4e-06
                          CHANNELS 3 Zrotation Yrotation Xrotation
                          JOINT LeftHandIndexEnd
                          {
                            OFFSET 2.767823 1e-06 0.0
                            CHANNELS 3 Zrotation Yrotation Xrotation
                          }
                        }
                      }
                    }
                  }
                  JOINT LeftHandMiddle1
                  {
                    OFFSET 3.163612 0.945023 -0.406112
                    CHANNELS 3 Zrotation Yrotation Xrotation
                    JOINT LeftHandMiddle2
                    {
                      OFFSET 6.276789 3e-06 0.0
                      CHANNELS 3 Zrotation Yrotation Xrotation
                      JOINT LeftHandMiddle3
                      {
                        OFFSET 4.35652 -1e-06 4e-06
                        CHANNELS 3 Zrotation Yrotation Xrotation
                        JOINT LeftHandMiddle4
                        {
                          OFFSET 2.996877 0.0 8e-06
                          CHANNELS 3 Zrotation Yrotation Xrotation
                          JOINT LeftHandMiddleEnd
                          {
                            OFFSET 2.323256 3e-06 -4e-06
                            CHANNELS 3 Zrotation Yrotation Xrotation
                          }
                        }
                      }
                    }
                  }
                  JOINT LeftHandRing1
                  {
                    OFFSET 2.882606 -0.309162 0.107445
                    CHANNELS 3 Zrotation Yrotation Xrotation
                    JOINT LeftHandRing2
                    {
                      OFFSET 6.033198 0.0 4e-06
                      CHANNELS 3 Zrotation Yrotation Xrotation
                      JOINT LeftHandRing3
                      {
                        OFFSET 4.350578 3e-06 0.0
                        CHANNELS 3 Zrotation Yrotation Xrotation
                        JOINT LeftHandRing4
                        {
                          OFFSET 2.651321 2e-06 -7e-06
                          CHANNELS 3 Zrotation Yrotation Xrotation
                          JOINT LeftHandRingEnd
                          {
                            OFFSET 1.937663 1e-06 -4e-06
                            CHANNELS 3 Zrotation Yrotation Xrotation
                          }
                        }
                      }
                    }
                  }
                  JOINT LeftHandPinky1
                  {
                    OFFSET 2.865315 -1.525436 0.575687
                    CHANNELS 3 Zrotation Yrotation Xrotation
                    JOINT LeftHandPinky2
                    {
                      OFFSET 5.54936 1e-06 -8e-06
                      CHANNELS 3 Zrotation Yrotation Xrotation
                      JOINT LeftHandPinky3
                      {
                        OFFSET 3.070974 0.0 -4e-06
                        CHANNELS 3 Zrotation Yrotation Xrotation
                        JOINT LeftHandPinky4
                        {
                          OFFSET 1.549672 1e-06 0.0
                          CHANNELS 3 Zrotation Yrotation Xrotation
                          JOINT LeftHandPinkyEnd
                          {
                            OFFSET 1.952123 0.0 0.0
                            CHANNELS 3 Zrotation Yrotation Xrotation
                          }
                        }
                      }
                    }
                  }
                }
              }
            }
          }
          JOINT RightShoulder
          {
            OFFSET 23.161716 5.296122 -1.380114
            CHANNELS 3 Zrotation Yrotation Xrotation
            JOINT RightArm
            {
              OFFSET -16.027195 -2e-06 1.1e-05
              CHANNELS 3 Zrotation Yrotation Xrotation
              JOINT RightForeArm
              {
                OFFSET -28.736639 4e-06 2e-06
                CHANNELS 3 Zrotation Yrotation Xrotation
                JOINT RightHand
                {
                  OFFSET -27.133619 6e-06 0.0
                  CHANNELS 3 Zrotation Yrotation Xrotation
                  JOINT RightHandThumb1
                  {
                    OFFSET -2.274328 -3.351035 -0.83067
                    CHANNELS 3 Zrotation Yrotation Xrotation
                    JOINT RightHandThumb2
                    {
                      OFFSET -4.703594 -3e-06 2e-06
                      CHANNELS 3 Zrotation Yrotation Xrotation
                      JOINT RightHandThumb3
                      {
                        OFFSET -2.794935 -4e-06 -3e-06
                        CHANNELS 3 Zrotation Yrotation Xrotation
                        JOINT RightHandThumbEnd
                        {
                          OFFSET -3.183852 4e-06 1e-06
                          CHANNELS 3 Zrotation Yrotation Xrotation
                        }
                      }
                    }
                  }
                  JOINT RightHandIndex1
                  {
                    OFFSET -3.253496 -2.33755 -0.127667
                    CHANNELS 3 Zrotation Yrotation Xrotation
                    JOINT RightHandIndex2
                    {
                      OFFSET -6.344434 0.0 0.0
                      CHANNELS 3 Zrotation Yrotation Xrotation
                      JOINT RightHandIndex3
                      {
                        OFFSET -3.654871 0.0 -8e-06
                        CHANNELS 3 Zrotation Yrotation Xrotation
                        JOINT RightHandIndex4
                        {
                          OFFSET -2.327586 -1e-06 0.0
                          CHANNELS 3 Zrotation Yrotation Xrotation
                          JOINT RightHandIndexEnd
                          {
                            OFFSET -2.770001 3e-06 8e-06
                            CHANNELS 3 Zrotation Yrotation Xrotation
                          }
                        }
                      }
                    }
                  }
                  JOINT RightHandMiddle1
                  {
                    OFFSET -3.168223 -0.944764 0.411762
                    CHANNELS 3 Zrotation Yrotation Xrotation
                    JOINT RightHandMiddle2
                    {
                      OFFSET -6.266691 -1e-06 -4e-06
                      CHANNELS 3 Zrotation Yrotation Xrotation
                      JOINT RightHandMiddle3
                      {
                        OFFSET -4.348901 0.0 0.0
                        CHANNELS 3 Zrotation Yrotation Xrotation
                        JOINT RightHandMiddle4
                        {
                          OFFSET -3.00024 2e-06 -4e-06
                          CHANNELS 3 Zrotation Yrotation Xrotation
                          JOINT RightHandMiddleEnd
                          {
                            OFFSET -2.321477 -4e-06 -4e-06
                            CHANNELS 3 Zrotation Yrotation Xrotation
                          }
                        }
                      }
                    }
                  }
                  JOINT RightHandRing1
                  {
                    OFFSET -2.885654 0.293261 -0.119232
                    CHANNELS 3 Zrotation Yrotation Xrotation
                    JOINT RightHandRing2
                    {
                      OFFSET -6.032835 -1e-06 -4e-06
                      CHANNELS 3 Zrotation Yrotation Xrotation
                      JOINT RightHandRing3
                      {
                        OFFSET -4.33881 0.0 -4e-06
                        CHANNELS 3 Zrotation Yrotation Xrotation
                        JOINT RightHandRing4
                        {
                          OFFSET -2.654903 -4e-06 -4e-06
                          CHANNELS 3 Zrotation Yrotation Xrotation
                          JOINT RightHandRingEnd
                          {
                            OFFSET -1.935122 0.0 4e-06
                            CHANNELS 3 Zrotation Yrotation Xrotation
                          }
                        }
                      }
                    }
                  }
                  JOINT RightHandPinky1
                  {
                    OFFSET -2.866241 1.503904 -0.60527
                    CHANNELS 3 Zrotation Yrotation Xrotation
                    JOINT RightHandPinky2
                    {
                      OFFSET -5.553177 -2e-06 0.0
                      CHANNELS 3 Zrotation Yrotation Xrotation
                      JOINT RightHandPinky3
                      {
                        OFFSET -3.062664 -1e-06 -4e-06
                        CHANNELS 3 Zrotation Yrotation Xrotation
                        JOINT RightHandPinky4
                        {
                          OFFSET -1.546529 2e-06 4e-06
                          CHANNELS 3 Zrotation Yrotation Xrotation
                          JOINT RightHandPinkyEnd
                          {
                            OFFSET -1.952341 0.0 -4e-06
                            CHANNELS 3 Zrotation Yrotation Xrotation
                          }
                        }
                      }
                    }
                  }
                }
              }
            }
          }
        }
      }
    }
    JOINT LeftLeg
    {
      OFFSET -8.443107 2.567604 10.043214
      CHANNELS 3 Zrotation Yrotation Xrotation
      JOINT LeftShin
      {
        OFFSET 43.229198 1e-06 -1e-06
        CHANNELS 3 Zrotation Yrotation Xrotation
        JOINT LeftFoot
        {
          OFFSET 42.298611 1e-06 1e-06
          CHANNELS 3 Zrotation Yrotation Xrotation
          JOINT LeftToeBase
          {
            OFFSET 14.165858 1e-06 0.0
            CHANNELS 3 Zrotation Yrotation Xrotation
            JOINT LeftToeEnd
            {
              OFFSET 6.7141 -0.234461 0.0
              CHANNELS 3 Zrotation Yrotation Xrotation
            }
          }
        }
      }
    }
    JOINT RightLeg
    {
      OFFSET -8.303923 2.592729 -10.047278
      CHANNELS 3 Zrotation Yrotation Xrotation
      JOINT RightShin
      {
        OFFSET -43.369682 0.0 1e-06
        CHANNELS 3 Zrotation Yrotation Xrotation
        JOINT RightFoot
        {
          OFFSET -42.260784 4e-06 2e-06
          CHANNELS 3 Zrotation Yrotation Xrotation
          JOINT RightToeBase
          {
            OFFSET -14.222245 -2e-06 -1e-06
            CHANNELS 3 Zrotation Yrotation Xrotation
            JOINT RightToeEnd
            {
              OFFSET -6.660062 0.232574 -2e-06
              CHANNELS 3 Zrotation Yrotation Xrotation
            }
          }
        }
      }
    }
  }
}
MOTION
Frames: 4
Frame Time: 0.03333333333333333
0.0 0.0 0.0 0.0 -0.0 0.0 11.965955 9.841204 109.298561 -171.602814 -84.387802 -9.835197 -1.745876 -0.586664 -1.117416 -11.658085 -0.439481 0.371545 13.483742 -0.395825 0.730987 11.091502 6.389261 3.182728 -1.805182 -0.950854 -19.623043 -24.958614 2.65806 -24.79525 6e-06 -0.0 -2e-06 -0.291087 -0.538224 0.719854 -0.03179 -0.625278 1.079178 -0.008604 -0.456175 0.402757 -7.107049 -74.954048 13.988851 2.396322 -41.521763 -77.087517 142.519669 1.16724 -1.187581 -9.509417 29.685007 1.12411 17.636629 -26.322729 52.41119 -19.466652 -14.395602 29.410385 -1e-06 -8.774822 -2e-06 15.308373 -18.049093 6.393626 -0.609776 -1.795652 -3.889326 -4.807089 -11.046809 -2.93785 3e-06 -20.976015 1e-06 -5.019971 -25.033556 -4.031881 7e-06 2e-06 0.0 -10.634535 -5.68697 -3.565586 10.573272 -17.922947 -3.1139 3e-06 -13.821205 0.0 -0.501781 -31.181501 -4.027014 -11.273717 -58.181896 7.648981 -13.982712 -7.150197 -2.875042 13.772726 -8.401489 -3.218239 0.347729 -34.21154 0.771658 -0.963031 -17.73337 2.621018 -1e-06 1e-06 -1e-06 -17.346416 -20.095213 -4.201782 21.757557 -1.638374 3.866427 -1e-06 -6.338822 1e-06 -1.697591 -22.591743 -6.194005 1e-06 -2e-06 -1e-06 -162.893082 -81.20507 -8.978336 3.824813 -30.461067 -82.119209 131.836319 0.200872 1.171144 -0.518577 31.073057 7.853897 22.182116 -20.375891 49.933319 -16.701813 -16.74353 28.47653 -3e-06 -12.690601 -1e-06 15.624785 -17.804413 2.779124 -0.105919 -1.513856 -4.275881 -5.039041 -5.612871 -2.953557 4e-06 -11.020523 -1e-06 -6.111296 -15.895334 -3.840471 -0.0 1e-06 1e-06 -10.283371 -5.680286 -4.341838 11.028294 -11.302404 -2.372633 -1.384269 -14.238579 -6.320122 -0.625437 -26.924187 -3.8276 -4.548499 -48.615719 -4.541652 -13.708522 -7.363473 -3.720941 18.141148 -14.052738 -3.242673 6e-06 -18.787266 -1e-06 -0.429711 -8.456045 2.555504 -0.0 0.0 -0.0 -15.923532 -20.094482 -5.473585 30.41921 -7.190826 1.735926 4e-06 -8.162925 -1e-06 -1.861903 -22.861467 -6.167939 1e-06 -4e-06 -3e-06 177.35643 -9.760447 -162.779922 -3.883042 -4.588386 154.865738 -26.528311 15.21355 4.619811 -10.118035 1.028664 1.957944 -1.0 -0.0 0.0 -1.863609 -10.9711 -126.003143 -4.172555 -6.935842 104.577332 -54.279335 11.815241 0.15177 -8.62292 0.577578 1.719087 -1.000003 0.0 0.0 
0.0 0.0 0.0 0.0 -0.0 0.0 11.959357 9.831971 109.287094 -171.560379 -84.40889 -9.883033 -1.749211 -0.579898 -1.122366 -11.676548 -0.454176 0.3738 13.49305 -0.357752 0.758769 11.109098 6.381717 3.18564 -1.813297 -0.96877 -19.665888 -24.990456 2.670925 -24.774426 6e-06 -1e-06 0.0 -0.291966 -0.544159 0.728108 -0.023871 -0.631254 1.089979 -0.006195 -0.4615 0.407892 -7.072241 -74.906326 14.05234 2.407861 -41.559818 -76.957809 142.565094 1.19881 -1.168856 -9.515494 29.798565 1.318118 17.636633 -26.322733 52.411205 -19.466663 -14.3956 29.410395 -2e-06 -8.774822 -2e-06 15.297681 -18.082626 6.422208 -0.609777 -1.795654 -3.889327 -4.807087 -11.046807 -2.93785 6e-06 -20.976015 -0.0 -5.019967 -25.033552 -4.031882 7e-06 1e-06 -0.0 -10.634534 -5.686967 -3.565588 10.573275 -17.922947 -3.113901 4e-06 -13.821205 0.0 -0.501778 -31.181501 -4.027012 -11.269611 -58.225956 7.651537 -13.982712 -7.150195 -2.875045 13.772729 -8.401491 -3.21824 0.347736 -34.21154 0.771655 -0.963029 -17.733368 2.621021 -0.0 0.0 -1e-06 -17.34642 -20.095213 -4.201784 21.757561 -1.638376 3.866428 2e-06 -6.338822 1e-06 -1.69759 -22.591747 -6.194007 0.0 -2e-06 -1e-06 -162.681305 -81.194 -9.081407 3.833961 -30.420509 -82.15715 131.812943 0.218647 1.169565 -0.627101 31.062744 7.963583 22.182114 -20.375898 49.933323 -16.701809 -16.743528 28.476526 -4e-06 -12.690599 -1e-06 15.691045 -17.832983 2.786111 -0.105919 -1.513856 -4.275881 -5.039039 -5.612868 -2.953557 5e-06 -11.020519 -1e-06 -6.111294 -15.895328 -3.840469 0.0 0.0 1e-06 -10.283367 -5.680286 -4.341839 11.028293 -11.302402 -2.372632 -1.384267 -14.238575 -6.320118 -0.625437 -26.924179 -3.827599 -4.537978 -48.674511 -4.562449 -13.708523 -7.363472 -3.720939 18.141148 -14.052736 -3.242673 6e-06 -18.787262 -0.0 -0.429711 -8.456042 2.555504 0.0 1e-06 1e-06 -15.923531 -20.094475 -5.473586 30.419207 -7.190828 1.735927 3e-06 -8.162922 0.0 -1.861903 -22.861467 -6.167938 0.0 -4e-06 -2e-06 177.221497 -9.882424 -162.748016 -4.108017 -4.778465 154.86853 -26.619701 15.163879 4.608914 -10.130476 1.025827 1.961147 -0.999999 -0.0 0.0 -1.977013 -10.974275 -125.93055 -4.232224 -7.11866 104.529106 -54.147278 11.738132 0.159167 -8.569218 0.578338 1.71639 -1.000002 -0.0 0.0 
0.0 0.0 0.0 0.0 -0.0 0.0 11.947123 9.821373 109.277115 -171.596848 -84.413452 -9.83878 -1.756012 -0.564431 -1.123694 -11.690779 -0.46892 0.366813 13.504218 -0.351816 0.794271 11.129728 6.368899 3.176167 -1.819667 -0.971965 -19.676886 -25.025311 2.689647 -24.762491 5e-06 -0.0 -0.0 -0.293085 -0.551751 0.734181 -0.022803 -0.636744 1.095768 -0.004404 -0.470635 0.413912 -7.061362 -74.853615 14.104771 2.44042 -41.605812 -76.731392 142.612442 1.236497 -1.117595 -9.485881 29.9526 1.536028 17.636629 -26.322721 52.411182 -19.466665 -14.395598 29.410389 -1e-06 -8.774822 -2e-06 15.293818 -18.098043 6.425595 -0.609777 -1.795654 -3.889329 -4.807088 -11.046811 -2.93785 4e-06 -20.976019 -2e-06 -5.019969 -25.033556 -4.031882 7e-06 1e-06 0.0 -10.634535 -5.686971 -3.565587 10.573275 -17.922951 -3.113901 3e-06 -13.821209 -0.0 -0.501776 -31.181505 -4.027019 -11.26282 -58.247555 7.646675 -13.982714 -7.150198 -2.875041 13.772728 -8.401493 -3.218241 0.347737 -34.211555 0.771652 -0.963027 -17.733372 2.621018 -1e-06 0.0 -0.0 -17.346416 -20.095217 -4.201783 21.757557 -1.638375 3.866427 1e-06 -6.338824 -0.0 -1.697589 -22.591747 -6.194008 -1e-06 -3e-06 -1e-06 -162.61084 -81.208641 -9.052251 3.85631 -30.381584 -82.134933 131.785721 0.262904 1.160308 -0.663292 31.058109 8.129638 22.182121 -20.375895 49.933319 -16.701811 -16.74353 28.476528 -3e-06 -12.690601 -1e-06 15.759644 -17.868433 2.80523 -0.105919 -1.513856 -4.275881 -5.03904 -5.612871 -2.953557 3e-06 -11.02052 -1e-06 -6.111297 -15.89533 -3.84047 1e-06 1e-06 -0.0 -10.283371 -5.680288 -4.341838 11.028294 -11.302404 -2.372632 -1.38427 -14.238579 -6.32012 -0.625438 -26.924191 -3.827601 -4.545293 -48.758316 -4.563325 -13.708525 -7.363475 -3.720939 18.141148 -14.052737 -3.242673 7e-06 -18.787268 -2e-06 -0.429711 -8.456041 2.555505 1e-06 0.0 -0.0 -15.923536 -20.094482 -5.473584 30.41921 -7.190826 1.735928 2e-06 -8.162925 -1e-06 -1.861902 -22.861471 -6.167942 -0.0 -3e-06 -2e-06 177.141861 -9.919363 -162.561249 -4.241503 -4.911902 154.623611 -26.690678 15.081815 4.578072 -10.111668 1.023357 1.97047 -0.999999 0.0 0.0 -2.105227 -11.0014 -125.864677 -4.287377 -7.346073 104.476425 -53.958675 11.635628 0.182566 -8.449903 0.574139 1.716585 -1.000001 -0.0 -0.0 
0.0 0.0 0.0 0.0 -0.0 0.0 11.925315 9.794092 109.270241 -171.728058 -84.40007 -9.687759 -1.75692 -0.552342 -1.130211 -11.69665 -0.46741 0.35949 13.507092 -0.387989 0.823954 11.1436 6.341852 3.157328 -1.82286 -0.953952 -19.642824 -25.056883 2.692217 -24.751657 6e-06 -0.0 1e-06 -0.292468 -0.561807 0.735355 -0.022964 -0.643227 1.09379 -0.000845 -0.483746 0.417894 -7.0665 -74.81646 14.123711 2.466944 -41.627392 -76.499649 142.635986 1.254946 -1.059322 -9.46987 30.091759 1.673911 17.636635 -26.322735 52.411205 -19.466669 -14.395598 29.410398 -1e-06 -8.774824 -1e-06 15.297199 -18.106588 6.411777 -0.609776 -1.795654 -3.889329 -4.807091 -11.046814 -2.93785 6e-06 -20.976025 -4e-06 -5.019969 -25.033566 -4.031884 5e-06 -0.0 0.0 -10.634539 -5.686974 -3.565589 10.573278 -17.922958 -3.113904 4e-06 -13.821214 -1e-06 -0.501775 -31.181522 -4.02702 -11.270836 -58.255642 7.639769 -13.982719 -7.150201 -2.875043 13.772735 -8.401495 -3.218243 0.347737 -34.211563 0.771649 -0.963028 -17.733376 2.621019 -1e-06 0.0 -1e-06 -17.346426 -20.095228 -4.201782 21.75757 -1.638376 3.866429 1e-06 -6.338826 0.0 -1.697589 -22.591757 -6.194011 1e-06 -2e-06 -1e-06 -162.692795 -81.24411 -8.879506 3.893896 -30.361795 -82.06382 131.776566 0.335225 1.149437 -0.630633 31.058203 8.269303 22.182121 -20.375898 49.933327 -16.70182 -16.743536 28.476538 -3e-06 -12.690605 -0.0 15.81597 -17.897287 2.824186 -0.105919 -1.513857 -4.275883 -5.039042 -5.612874 -2.953557 3e-06 -11.020528 -1e-06 -6.1113 -15.895339 -3.840471 -0.0 0.0 1e-06 -10.283373 -5.680291 -4.341838 11.028299 -11.30241 -2.372634 -1.384269 -14.238587 -6.320123 -0.625437 -26.9242 -3.827604 -4.578245 -48.862263 -4.528054 -13.708529 -7.363479 -3.720938 18.141163 -14.052747 -3.242676 6e-06 -18.787279 -3e-06 -0.42971 -8.45605 2.555504 1e-06 0.0 -1e-06 -15.923541 -20.094492 -5.473584 30.419224 -7.190829 1.735926 3e-06 -8.16293 -1e-06 -1.861899 -22.861479 -6.167946 -1e-06 -4e-06 -2e-06 177.170319 -9.896585 -162.311661 -4.219513 -4.916469 154.254456 -26.685642 15.041391 4.511301 -10.064576 1.02372 1.978827 -1.000001 -0.0 0.0 -2.222059 -11.050958 -125.849091 -4.319751 -7.580292 104.491196 -53.651012 11.455853 0.219678 -8.325186 0.567608 1.717885 -1.000003 -0.0 -0.0 
